<mxfile host="app.diagrams.net" agent="Mozilla/5.0 (Windows NT 10.0; Win64; x64; rv:132.0) Gecko/20100101 Firefox/132.0" version="24.9.1">
  <diagram name="Página-1" id="SaOmk4jtE7JqLnAJ7gEJ">
    <mxGraphModel grid="1" page="1" gridSize="10" guides="1" tooltips="1" connect="1" arrows="1" fold="1" pageScale="1" pageWidth="827" pageHeight="1169" math="0" shadow="0">
      <root>
        <mxCell id="0" />
        <mxCell id="1" parent="0" />
        <mxCell id="Bj671aKj4cuTk_ouJR8m-1" value="DNI" style="ellipse;whiteSpace=wrap;html=1;aspect=fixed;" vertex="1" parent="1">
          <mxGeometry x="40" y="40" width="60" height="60" as="geometry" />
        </mxCell>
        <mxCell id="Bj671aKj4cuTk_ouJR8m-2" value="Nombre" style="ellipse;whiteSpace=wrap;html=1;aspect=fixed;fillColor=#dae8fc;strokeColor=#6c8ebf;" vertex="1" parent="1">
          <mxGeometry x="100" y="40" width="60" height="60" as="geometry" />
        </mxCell>
        <mxCell id="Bj671aKj4cuTk_ouJR8m-3" value="Dirección" style="ellipse;whiteSpace=wrap;html=1;aspect=fixed;fillColor=#dae8fc;strokeColor=#6c8ebf;" vertex="1" parent="1">
          <mxGeometry x="160" y="40" width="60" height="60" as="geometry" />
        </mxCell>
        <mxCell id="Bj671aKj4cuTk_ouJR8m-4" value="Teléfono" style="ellipse;whiteSpace=wrap;html=1;aspect=fixed;fillColor=#dae8fc;strokeColor=#6c8ebf;" vertex="1" parent="1">
          <mxGeometry x="225" y="40" width="60" height="60" as="geometry" />
        </mxCell>
        <mxCell id="Bj671aKj4cuTk_ouJR8m-6" style="edgeStyle=orthogonalEdgeStyle;rounded=0;orthogonalLoop=1;jettySize=auto;html=1;exitX=0;exitY=0;exitDx=0;exitDy=0;entryX=0.5;entryY=1;entryDx=0;entryDy=0;" edge="1" parent="1" source="Bj671aKj4cuTk_ouJR8m-5" target="Bj671aKj4cuTk_ouJR8m-1">
          <mxGeometry relative="1" as="geometry">
            <mxPoint x="70" y="110" as="targetPoint" />
          </mxGeometry>
        </mxCell>
        <mxCell id="Bj671aKj4cuTk_ouJR8m-9" style="edgeStyle=orthogonalEdgeStyle;rounded=0;orthogonalLoop=1;jettySize=auto;html=1;exitX=0.25;exitY=0;exitDx=0;exitDy=0;entryX=0.5;entryY=1;entryDx=0;entryDy=0;" edge="1" parent="1" source="Bj671aKj4cuTk_ouJR8m-5" target="Bj671aKj4cuTk_ouJR8m-2">
          <mxGeometry relative="1" as="geometry" />
        </mxCell>
        <mxCell id="Bj671aKj4cuTk_ouJR8m-10" style="edgeStyle=orthogonalEdgeStyle;rounded=0;orthogonalLoop=1;jettySize=auto;html=1;exitX=0.75;exitY=0;exitDx=0;exitDy=0;entryX=0.5;entryY=1;entryDx=0;entryDy=0;" edge="1" parent="1" source="Bj671aKj4cuTk_ouJR8m-5" target="Bj671aKj4cuTk_ouJR8m-3">
          <mxGeometry relative="1" as="geometry" />
        </mxCell>
        <mxCell id="Bj671aKj4cuTk_ouJR8m-11" style="edgeStyle=orthogonalEdgeStyle;rounded=0;orthogonalLoop=1;jettySize=auto;html=1;exitX=1;exitY=0;exitDx=0;exitDy=0;entryX=0.5;entryY=1;entryDx=0;entryDy=0;" edge="1" parent="1" source="Bj671aKj4cuTk_ouJR8m-5" target="Bj671aKj4cuTk_ouJR8m-4">
          <mxGeometry relative="1" as="geometry">
            <mxPoint x="250" y="110" as="targetPoint" />
          </mxGeometry>
        </mxCell>
        <mxCell id="Bj671aKj4cuTk_ouJR8m-13" style="edgeStyle=orthogonalEdgeStyle;rounded=0;orthogonalLoop=1;jettySize=auto;html=1;exitX=1;exitY=0.5;exitDx=0;exitDy=0;entryX=0;entryY=0.5;entryDx=0;entryDy=0;" edge="1" parent="1" source="Bj671aKj4cuTk_ouJR8m-5" target="Bj671aKj4cuTk_ouJR8m-12">
          <mxGeometry relative="1" as="geometry" />
        </mxCell>
        <mxCell id="Bj671aKj4cuTk_ouJR8m-5" value="&lt;font style=&quot;font-size: 20px;&quot;&gt;Profesorado&lt;/font&gt;" style="rounded=0;whiteSpace=wrap;html=1;" vertex="1" parent="1">
          <mxGeometry x="90" y="160" width="140" height="70" as="geometry" />
        </mxCell>
        <mxCell id="Bj671aKj4cuTk_ouJR8m-17" style="edgeStyle=orthogonalEdgeStyle;rounded=0;orthogonalLoop=1;jettySize=auto;html=1;exitX=1;exitY=0.5;exitDx=0;exitDy=0;entryX=0;entryY=0.5;entryDx=0;entryDy=0;" edge="1" parent="1" source="Bj671aKj4cuTk_ouJR8m-12" target="Bj671aKj4cuTk_ouJR8m-15">
          <mxGeometry relative="1" as="geometry" />
        </mxCell>
        <mxCell id="Bj671aKj4cuTk_ouJR8m-12" value="Impartir" style="rhombus;whiteSpace=wrap;html=1;" vertex="1" parent="1">
          <mxGeometry x="340" y="162.5" width="160" height="67.5" as="geometry" />
        </mxCell>
        <mxCell id="Bj671aKj4cuTk_ouJR8m-15" value="&lt;font style=&quot;font-size: 20px;&quot;&gt;Módulos&lt;/font&gt;" style="rounded=0;whiteSpace=wrap;html=1;" vertex="1" parent="1">
          <mxGeometry x="614" y="160" width="140" height="70" as="geometry" />
        </mxCell>
        <mxCell id="Bj671aKj4cuTk_ouJR8m-20" style="edgeStyle=orthogonalEdgeStyle;rounded=0;orthogonalLoop=1;jettySize=auto;html=1;exitX=0.5;exitY=1;exitDx=0;exitDy=0;entryX=0;entryY=0;entryDx=0;entryDy=0;" edge="1" parent="1" source="Bj671aKj4cuTk_ouJR8m-18" target="Bj671aKj4cuTk_ouJR8m-15">
          <mxGeometry relative="1" as="geometry" />
        </mxCell>
        <mxCell id="Bj671aKj4cuTk_ouJR8m-18" value="Nombre" style="ellipse;whiteSpace=wrap;html=1;aspect=fixed;fillColor=#dae8fc;strokeColor=#6c8ebf;" vertex="1" parent="1">
          <mxGeometry x="624" y="40" width="60" height="60" as="geometry" />
        </mxCell>
        <mxCell id="Bj671aKj4cuTk_ouJR8m-21" style="edgeStyle=orthogonalEdgeStyle;rounded=0;orthogonalLoop=1;jettySize=auto;html=1;exitX=0.5;exitY=1;exitDx=0;exitDy=0;entryX=1;entryY=0;entryDx=0;entryDy=0;" edge="1" parent="1" source="Bj671aKj4cuTk_ouJR8m-19" target="Bj671aKj4cuTk_ouJR8m-15">
          <mxGeometry relative="1" as="geometry" />
        </mxCell>
        <mxCell id="Bj671aKj4cuTk_ouJR8m-19" value="Código" style="ellipse;whiteSpace=wrap;html=1;aspect=fixed;" vertex="1" parent="1">
          <mxGeometry x="684" y="40" width="60" height="60" as="geometry" />
        </mxCell>
        <mxCell id="FVxKs1uN9uYGt-yJabyi-3" style="edgeStyle=orthogonalEdgeStyle;rounded=0;orthogonalLoop=1;jettySize=auto;html=1;exitX=0.5;exitY=0;exitDx=0;exitDy=0;entryX=0.5;entryY=1;entryDx=0;entryDy=0;" edge="1" parent="1" source="Bj671aKj4cuTk_ouJR8m-22" target="Bj671aKj4cuTk_ouJR8m-15">
          <mxGeometry relative="1" as="geometry">
            <mxPoint x="684" y="240" as="targetPoint" />
          </mxGeometry>
        </mxCell>
        <mxCell id="Bj671aKj4cuTk_ouJR8m-22" value="Matricular" style="rhombus;whiteSpace=wrap;html=1;" vertex="1" parent="1">
          <mxGeometry x="604" y="290" width="160" height="67.5" as="geometry" />
        </mxCell>
        <mxCell id="FVxKs1uN9uYGt-yJabyi-4" style="edgeStyle=orthogonalEdgeStyle;rounded=0;orthogonalLoop=1;jettySize=auto;html=1;exitX=0.5;exitY=0;exitDx=0;exitDy=0;" edge="1" parent="1" source="FVxKs1uN9uYGt-yJabyi-1">
          <mxGeometry relative="1" as="geometry">
            <mxPoint x="684" y="360" as="targetPoint" />
          </mxGeometry>
        </mxCell>
        <mxCell id="eZO-MektQqosMdwT9PB5-25" style="edgeStyle=orthogonalEdgeStyle;rounded=0;orthogonalLoop=1;jettySize=auto;html=1;exitX=1;exitY=0.5;exitDx=0;exitDy=0;entryX=1;entryY=0.5;entryDx=0;entryDy=0;" edge="1" parent="1" source="FVxKs1uN9uYGt-yJabyi-1" target="eZO-MektQqosMdwT9PB5-17">
          <mxGeometry relative="1" as="geometry" />
        </mxCell>
        <mxCell id="FVxKs1uN9uYGt-yJabyi-1" value="&lt;font style=&quot;font-size: 20px;&quot;&gt;Alumno&lt;/font&gt;" style="rounded=0;whiteSpace=wrap;html=1;" vertex="1" parent="1">
          <mxGeometry x="614" y="420" width="140" height="70" as="geometry" />
        </mxCell>
        <mxCell id="eZO-MektQqosMdwT9PB5-1" value="Teléfono" style="ellipse;whiteSpace=wrap;html=1;aspect=fixed;fillColor=#dae8fc;strokeColor=#030405;" vertex="1" parent="1">
          <mxGeometry x="230" y="45" width="50" height="50" as="geometry" />
        </mxCell>
        <mxCell id="eZO-MektQqosMdwT9PB5-2" value="Es impartido" style="text;html=1;align=center;verticalAlign=middle;resizable=0;points=[];autosize=1;strokeColor=none;fillColor=none;fontColor=#67AB9F;" vertex="1" parent="1">
          <mxGeometry x="250" y="160" width="90" height="30" as="geometry" />
        </mxCell>
        <mxCell id="eZO-MektQqosMdwT9PB5-3" value="Imparte" style="text;html=1;align=center;verticalAlign=middle;resizable=0;points=[];autosize=1;strokeColor=none;fillColor=none;fontColor=#67AB9F;" vertex="1" parent="1">
          <mxGeometry x="520" y="160" width="70" height="30" as="geometry" />
        </mxCell>
        <mxCell id="eZO-MektQqosMdwT9PB5-4" value="&lt;font color=&quot;#ffb570&quot;&gt;1:N&lt;/font&gt;" style="text;html=1;align=center;verticalAlign=middle;resizable=0;points=[];autosize=1;strokeColor=none;fillColor=none;fontSize=22;" vertex="1" parent="1">
          <mxGeometry x="390" y="115" width="60" height="40" as="geometry" />
        </mxCell>
        <mxCell id="eZO-MektQqosMdwT9PB5-5" value="(1.1)" style="text;html=1;align=center;verticalAlign=middle;resizable=0;points=[];autosize=1;strokeColor=none;fillColor=none;" vertex="1" parent="1">
          <mxGeometry x="230" y="200" width="50" height="30" as="geometry" />
        </mxCell>
        <mxCell id="eZO-MektQqosMdwT9PB5-8" value="(1, n)" style="text;html=1;align=center;verticalAlign=middle;resizable=0;points=[];autosize=1;strokeColor=none;fillColor=none;" vertex="1" parent="1">
          <mxGeometry x="564" y="200" width="50" height="30" as="geometry" />
        </mxCell>
        <mxCell id="eZO-MektQqosMdwT9PB5-9" value="Matriculado en" style="text;html=1;align=center;verticalAlign=middle;resizable=0;points=[];autosize=1;strokeColor=none;fillColor=none;fontColor=#67AB9F;" vertex="1" parent="1">
          <mxGeometry x="700" y="240" width="100" height="30" as="geometry" />
        </mxCell>
        <mxCell id="eZO-MektQqosMdwT9PB5-10" value="(1,n)" style="text;html=1;align=center;verticalAlign=middle;resizable=0;points=[];autosize=1;strokeColor=none;fillColor=none;" vertex="1" parent="1">
          <mxGeometry x="624" y="240" width="50" height="30" as="geometry" />
        </mxCell>
        <mxCell id="eZO-MektQqosMdwT9PB5-11" value="&lt;font color=&quot;#ffb570&quot; style=&quot;font-size: 22px;&quot;&gt;N:M&lt;/font&gt;" style="text;html=1;align=center;verticalAlign=middle;resizable=0;points=[];autosize=1;strokeColor=none;fillColor=none;" vertex="1" parent="1">
          <mxGeometry x="530" y="303.75" width="60" height="40" as="geometry" />
        </mxCell>
        <mxCell id="eZO-MektQqosMdwT9PB5-21" style="edgeStyle=orthogonalEdgeStyle;rounded=0;orthogonalLoop=1;jettySize=auto;html=1;exitX=0.989;exitY=0.422;exitDx=0;exitDy=0;exitPerimeter=0;" edge="1" parent="1" source="eZO-MektQqosMdwT9PB5-12">
          <mxGeometry relative="1" as="geometry">
            <mxPoint x="614" y="450" as="targetPoint" />
            <mxPoint x="448.0000000000034" y="450" as="sourcePoint" />
            <Array as="points">
              <mxPoint x="443" y="460" />
              <mxPoint x="614" y="460" />
            </Array>
          </mxGeometry>
        </mxCell>
        <mxCell id="eZO-MektQqosMdwT9PB5-12" value="Nombre" style="ellipse;whiteSpace=wrap;html=1;aspect=fixed;fillColor=#dae8fc;strokeColor=#6c8ebf;" vertex="1" parent="1">
          <mxGeometry x="384" y="410" width="60" height="60" as="geometry" />
        </mxCell>
        <mxCell id="eZO-MektQqosMdwT9PB5-20" style="edgeStyle=orthogonalEdgeStyle;rounded=0;orthogonalLoop=1;jettySize=auto;html=1;exitX=1;exitY=1;exitDx=0;exitDy=0;entryX=0;entryY=0.25;entryDx=0;entryDy=0;" edge="1" parent="1" source="eZO-MektQqosMdwT9PB5-13" target="FVxKs1uN9uYGt-yJabyi-1">
          <mxGeometry relative="1" as="geometry">
            <Array as="points">
              <mxPoint x="547" y="409" />
              <mxPoint x="547" y="450" />
              <mxPoint x="614" y="450" />
            </Array>
          </mxGeometry>
        </mxCell>
        <mxCell id="eZO-MektQqosMdwT9PB5-13" value="Nº Expediente" style="ellipse;whiteSpace=wrap;html=1;aspect=fixed;" vertex="1" parent="1">
          <mxGeometry x="420" y="357.5" width="60" height="60" as="geometry" />
        </mxCell>
        <mxCell id="eZO-MektQqosMdwT9PB5-22" style="edgeStyle=orthogonalEdgeStyle;rounded=0;orthogonalLoop=1;jettySize=auto;html=1;exitX=1;exitY=0.5;exitDx=0;exitDy=0;entryX=0;entryY=0.75;entryDx=0;entryDy=0;" edge="1" parent="1" source="eZO-MektQqosMdwT9PB5-14" target="FVxKs1uN9uYGt-yJabyi-1">
          <mxGeometry relative="1" as="geometry">
            <Array as="points">
              <mxPoint x="444" y="473" />
              <mxPoint x="550" y="473" />
            </Array>
          </mxGeometry>
        </mxCell>
        <mxCell id="eZO-MektQqosMdwT9PB5-14" value="Apellidos" style="ellipse;whiteSpace=wrap;html=1;aspect=fixed;fillColor=#dae8fc;strokeColor=#6c8ebf;" vertex="1" parent="1">
          <mxGeometry x="384" y="470" width="60" height="60" as="geometry" />
        </mxCell>
        <mxCell id="eZO-MektQqosMdwT9PB5-23" style="edgeStyle=orthogonalEdgeStyle;rounded=0;orthogonalLoop=1;jettySize=auto;html=1;entryX=0;entryY=0.75;entryDx=0;entryDy=0;exitX=1;exitY=0;exitDx=0;exitDy=0;" edge="1" parent="1" source="eZO-MektQqosMdwT9PB5-15" target="FVxKs1uN9uYGt-yJabyi-1">
          <mxGeometry relative="1" as="geometry">
            <Array as="points">
              <mxPoint x="471" y="520" />
              <mxPoint x="550" y="520" />
              <mxPoint x="550" y="473" />
            </Array>
          </mxGeometry>
        </mxCell>
        <mxCell id="eZO-MektQqosMdwT9PB5-15" value="Fecha Nacimiento" style="ellipse;whiteSpace=wrap;html=1;aspect=fixed;fillColor=#dae8fc;strokeColor=#6c8ebf;" vertex="1" parent="1">
          <mxGeometry x="420" y="520" width="60" height="60" as="geometry" />
        </mxCell>
        <mxCell id="eZO-MektQqosMdwT9PB5-24" style="edgeStyle=orthogonalEdgeStyle;rounded=0;orthogonalLoop=1;jettySize=auto;html=1;exitX=0.5;exitY=0;exitDx=0;exitDy=0;entryX=0.5;entryY=1;entryDx=0;entryDy=0;" edge="1" parent="1" source="eZO-MektQqosMdwT9PB5-17" target="FVxKs1uN9uYGt-yJabyi-1">
          <mxGeometry relative="1" as="geometry" />
        </mxCell>
        <mxCell id="eZO-MektQqosMdwT9PB5-17" value="Es delegado" style="rhombus;whiteSpace=wrap;html=1;" vertex="1" parent="1">
          <mxGeometry x="604" y="585" width="160" height="67.5" as="geometry" />
        </mxCell>
        <mxCell id="eZO-MektQqosMdwT9PB5-26" value="(1,n)" style="text;html=1;align=center;verticalAlign=middle;resizable=0;points=[];autosize=1;strokeColor=none;fillColor=none;" vertex="1" parent="1">
          <mxGeometry x="624" y="387.5" width="50" height="30" as="geometry" />
        </mxCell>
        <mxCell id="eZO-MektQqosMdwT9PB5-27" value="&lt;font color=&quot;#67ab9f&quot;&gt;Tiene&lt;/font&gt;" style="text;html=1;align=center;verticalAlign=middle;resizable=0;points=[];autosize=1;strokeColor=none;fillColor=none;" vertex="1" parent="1">
          <mxGeometry x="689" y="372.5" width="50" height="30" as="geometry" />
        </mxCell>
      </root>
    </mxGraphModel>
  </diagram>
</mxfile>
